<svg width="302" height="302" viewBox="0 0 302 302" fill="none" xmlns="http://www.w3.org/2000/svg">
<circle cx="151" cy="151" r="151" fill="#7C0DA4"/>
<path d="M81.8 209V98.2H204.4C215.2 108.2 220.6 121.667 220.6 138.6V209H186V146.6C186 134.867 184.267 126 180.8 120C177.467 113.867 171.4 109.2 162.6 106L162.2 106.2C164.733 110.733 166.4 115.867 167.2 121.6C168 127.2 168.4 132.867 168.4 138.6V209H134V146.4C134 140.667 133.467 135.133 132.4 129.8C131.467 124.333 129.733 119.533 127.2 115.4C124.8 111.133 121.333 108.067 116.8 106.2L116.4 106.4V209H81.8Z" fill="white"/>
</svg>
